<svg width="500" height="500" viewBox="0 0 500 500" xmlns="http://www.w3.org/2000/svg">
  <rect width="500" height="500" fill="#0a0a0b"/>

  <rect x="1.5" y="1.5" width="497" height="497" fill="none" stroke="#e8a237" stroke-width="1.5"/>

  <rect x="48" y="48" width="192" height="192" fill="#111113" stroke="#e8a237" stroke-width="0.5" stroke-opacity="0.2"/>
  <rect x="260" y="48" width="192" height="192" fill="#111113" stroke="#e8a237" stroke-width="0.5" stroke-opacity="0.2"/>
  <rect x="48" y="260" width="192" height="192" fill="#111113" stroke="#e8a237" stroke-width="0.5" stroke-opacity="0.2"/>

  <rect x="260" y="260" width="192" height="192" fill="#e8a237"/>

  <line x1="280" y1="280" x2="298" y2="280" stroke="#0a0a0b" stroke-width="2" stroke-linecap="square"/>
  <line x1="280" y1="280" x2="280" y2="298" stroke="#0a0a0b" stroke-width="2" stroke-linecap="square"/>

  <line x1="432" y1="280" x2="432" y2="298" stroke="#0a0a0b" stroke-width="2" stroke-linecap="square"/>
  <line x1="414" y1="280" x2="432" y2="280" stroke="#0a0a0b" stroke-width="2" stroke-linecap="square"/>

  <line x1="280" y1="432" x2="280" y2="414" stroke="#0a0a0b" stroke-width="2" stroke-linecap="square"/>
  <line x1="280" y1="432" x2="298" y2="432" stroke="#0a0a0b" stroke-width="2" stroke-linecap="square"/>

  <line x1="432" y1="432" x2="414" y2="432" stroke="#0a0a0b" stroke-width="2" stroke-linecap="square"/>
  <line x1="432" y1="432" x2="432" y2="414" stroke="#0a0a0b" stroke-width="2" stroke-linecap="square"/>

  <circle cx="356" cy="356" r="6" fill="#0a0a0b"/>
  <circle cx="356" cy="356" r="2.5" fill="#e8a237"/>

  <rect x="48" y="48" width="7" height="7" fill="#e8a237"/>
  <rect x="233" y="48" width="7" height="7" fill="#e8a237"/>
  <rect x="48" y="233" width="7" height="7" fill="#e8a237"/>
</svg>
