<svg width="900" height="200" viewBox="0 0 900 200" xmlns="http://www.w3.org/2000/svg">
  <style>
    @import url('https://fonts.googleapis.com/css2?family=Syne:wght@700;800&amp;family=DM+Mono:wght@400&amp;display=swap');
  </style>

  <rect width="900" height="200" fill="#0a0a0b"/>

  <rect x="1" y="1" width="898" height="198" fill="none" stroke="#e8a237" stroke-width="1"/>

  <rect x="28" y="28" width="72" height="72" fill="#111113" stroke="#e8a237" stroke-width="0.5" stroke-opacity="0.25"/>
  <rect x="104" y="28" width="72" height="72" fill="#111113" stroke="#e8a237" stroke-width="0.5" stroke-opacity="0.25"/>
  <rect x="28" y="104" width="72" height="72" fill="#111113" stroke="#e8a237" stroke-width="0.5" stroke-opacity="0.25"/>
  <rect x="104" y="104" width="72" height="72" fill="#e8a237"/>

  <line x1="114" y1="114" x2="121" y2="114" stroke="#0a0a0b" stroke-width="1.5" stroke-linecap="square"/>
  <line x1="114" y1="114" x2="114" y2="121" stroke="#0a0a0b" stroke-width="1.5" stroke-linecap="square"/>
  <line x1="166" y1="114" x2="166" y2="121" stroke="#0a0a0b" stroke-width="1.5" stroke-linecap="square"/>
  <line x1="159" y1="114" x2="166" y2="114" stroke="#0a0a0b" stroke-width="1.5" stroke-linecap="square"/>
  <line x1="114" y1="166" x2="114" y2="159" stroke="#0a0a0b" stroke-width="1.5" stroke-linecap="square"/>
  <line x1="114" y1="166" x2="121" y2="166" stroke="#0a0a0b" stroke-width="1.5" stroke-linecap="square"/>
  <line x1="166" y1="166" x2="159" y2="166" stroke="#0a0a0b" stroke-width="1.5" stroke-linecap="square"/>
  <line x1="166" y1="166" x2="166" y2="159" stroke="#0a0a0b" stroke-width="1.5" stroke-linecap="square"/>
  <circle cx="140" cy="140" r="4" fill="#0a0a0b"/>
  <circle cx="140" cy="140" r="1.8" fill="#e8a237"/>

  <rect x="28" y="28" width="5" height="5" fill="#e8a237"/>
  <rect x="95" y="28" width="5" height="5" fill="#e8a237"/>
  <rect x="28" y="95" width="5" height="5" fill="#e8a237"/>

  <line x1="210" y1="28" x2="210" y2="172" stroke="#e8a237" stroke-width="0.5" stroke-opacity="0.3"/>

  <text x="236" y="120" font-family="'Syne', sans-serif" font-size="52" font-weight="800" fill="#f0ede8" letter-spacing="-1">NOVENTRA</text>
  <text x="237" y="153" font-family="'DM Mono', monospace" font-size="13" font-weight="400" fill="#e8a237" letter-spacing="8">LABS</text>
</svg>
